<svg width="15" height="15" viewBox="0 0 15 15" fill="none" xmlns="http://www.w3.org/2000/svg">
<path d="M14.1008 13.186L9.78936 8.87461C10.4584 8.00967 10.8203 6.95215 10.8203 5.83984C10.8203 4.5084 10.3007 3.25996 9.36103 2.31865C8.42139 1.37734 7.16963 0.859375 5.83984 0.859375C4.51006 0.859375 3.2583 1.379 2.31865 2.31865C1.37734 3.2583 0.859375 4.5084 0.859375 5.83984C0.859375 7.16963 1.379 8.42139 2.31865 9.36103C3.2583 10.3023 4.5084 10.8203 5.83984 10.8203C6.95215 10.8203 8.00801 10.4584 8.87295 9.79102L13.1844 14.1008C13.197 14.1134 13.212 14.1235 13.2285 14.1303C13.2451 14.1372 13.2628 14.1407 13.2807 14.1407C13.2985 14.1407 13.3163 14.1372 13.3328 14.1303C13.3493 14.1235 13.3643 14.1134 13.377 14.1008L14.1008 13.3786C14.1134 13.366 14.1235 13.351 14.1303 13.3344C14.1372 13.3179 14.1407 13.3002 14.1407 13.2823C14.1407 13.2644 14.1372 13.2467 14.1303 13.2302C14.1235 13.2137 14.1134 13.1987 14.1008 13.186V13.186ZM8.46953 8.46953C7.76563 9.17178 6.83262 9.55859 5.83984 9.55859C4.84707 9.55859 3.91406 9.17178 3.21016 8.46953C2.50791 7.76563 2.12109 6.83262 2.12109 5.83984C2.12109 4.84707 2.50791 3.9124 3.21016 3.21016C3.91406 2.50791 4.84707 2.12109 5.83984 2.12109C6.83262 2.12109 7.76729 2.50625 8.46953 3.21016C9.17178 3.91406 9.55859 4.84707 9.55859 5.83984C9.55859 6.83262 9.17178 7.76729 8.46953 8.46953Z" fill="#6C5CE7"/>
</svg>
